<svg width="24" height="24" viewBox="0 0 24 24" fill="none" xmlns="http://www.w3.org/2000/svg">
<g id="File_dock_search">
<path id="Vector 55" d="M9 7L13 7" stroke="#353535" stroke-width="2" stroke-linecap="round"/>
<path id="Vector 59" d="M9 15L12 15" stroke="#353535" stroke-width="2" stroke-linecap="round"/>
<path id="Vector 58" d="M9 11L15 11" stroke="#353535" stroke-width="2" stroke-linecap="round"/>
<path id="Rectangle 4012" d="M19 11V9C19 6.17157 19 4.75736 18.1213 3.87868C17.2426 3 15.8284 3 13 3H11C8.17157 3 6.75736 3 5.87868 3.87868C5 4.75736 5 6.17157 5 9V15C5 17.8284 5 19.2426 5.87868 20.1213C6.75736 21 8.17157 21 11 21H12" stroke="#353535" stroke-width="2"/>
<g id="Group 8656">
<circle id="Ellipse 65" cx="17.5" cy="17.5" r="2.5" stroke="#353535" stroke-width="2"/>
<path id="Vector 109" d="M21 21L19.5 19.5" stroke="#353535" stroke-width="2" stroke-linecap="round"/>
</g>
</g>
</svg>
